<?xml version="1.0" standalone="no"?>
<!DOCTYPE svg PUBLIC "-//W3C//DTD SVG 20010904//EN"
 "http://www.w3.org/TR/2001/REC-SVG-20010904/DTD/svg10.dtd">
<svg version="1.0" xmlns="http://www.w3.org/2000/svg"
 width="600.000000pt" height="300.000000pt" viewBox="0 0 600.000000 300.000000"
 preserveAspectRatio="xMidYMid meet">

<g transform="translate(0.000000,300.000000) scale(0.100000,-0.100000)"
fill="#000000" stroke="none">
<path d="M3047 2263 c-4 -3 -7 -142 -7 -308 0 -166 -3 -304 -6 -308 -4 -3 -36
9 -71 28 -54 29 -69 33 -87 23 -77 -40 -386 -221 -395 -232 -8 -9 -11 -91 -9
-257 l3 -243 203 -118 c112 -65 211 -118 219 -118 24 0 402 221 419 244 12 17
14 110 14 577 0 516 -1 558 -17 577 -19 21 -231 142 -249 142 -6 0 -14 -3 -17
-7z m-77 -921 l65 -37 3 -87 3 -86 -72 -41 -71 -41 -57 31 c-91 52 -91 52 -91
140 l0 78 68 40 c37 22 72 40 77 41 6 0 39 -17 75 -38z"/>
<path d="M390 1609 c-107 -61 -203 -120 -212 -131 -16 -18 -18 -49 -18 -317 0
-222 3 -301 13 -314 11 -15 23 -11 127 48 63 36 123 75 133 86 15 18 17 43 17
175 l0 154 45 29 c88 56 97 57 158 22 30 -17 61 -39 68 -48 10 -11 15 -62 19
-177 l5 -160 118 -68 c66 -37 128 -68 138 -68 18 0 19 12 19 313 0 286 -2 315
-17 330 -22 19 -373 223 -399 231 -13 4 -82 -30 -214 -105z"/>
<path d="M3825 1592 l-200 -117 -3 -246 c-2 -224 -1 -247 15 -261 31 -26 392
-228 408 -228 15 0 241 123 259 141 16 15 -2 27 -207 144 l-192 111 -3 86 -3
86 72 41 71 41 74 -41 74 -40 0 -69 c0 -38 5 -72 10 -75 6 -4 68 27 138 67
l127 74 3 81 c3 79 2 82 -25 100 -76 53 -382 223 -399 222 -10 0 -109 -53
-219 -117z"/>
</g>
</svg>
