<?xml version="1.0" standalone="no"?>
<!DOCTYPE svg PUBLIC "-//W3C//DTD SVG 20010904//EN"
 "http://www.w3.org/TR/2001/REC-SVG-20010904/DTD/svg10.dtd">
<svg version="1.0" xmlns="http://www.w3.org/2000/svg"
 width="160.000000pt" height="160.000000pt" viewBox="0 0 160.000000 160.000000"
 preserveAspectRatio="xMidYMid meet">

<g transform="translate(0.000000,160.000000) scale(0.100000,-0.100000)"
fill="#000000" stroke="none">
<path d="M724 1592 c-9 -5 -7 -32 7 -102 10 -52 19 -116 19 -142 l0 -48 39 0
39 0 7 68 c4 37 13 98 21 135 21 102 24 97 -53 97 -38 0 -73 -4 -79 -8z"/>
<path d="M1236 1413 c-9 -26 -32 -76 -50 -110 l-33 -62 51 -38 c93 -69 152
-180 176 -329 6 -37 29 -97 62 -162 51 -100 53 -106 53 -185 -1 -97 -27 -163
-93 -238 -80 -90 -242 -148 -474 -171 -198 -19 -445 16 -586 83 -215 103 -275
334 -142 551 20 32 34 75 44 134 21 120 68 216 140 286 l58 56 -27 42 c-14 23
-39 73 -54 112 l-29 70 -71 -67 c-119 -113 -189 -228 -233 -381 -31 -112 -31
-296 0 -408 67 -236 224 -419 445 -521 93 -42 180 -63 291 -70 83 -5 88 -4 75
12 -11 15 -11 16 1 5 45 -39 272 27 407 119 63 43 156 132 198 189 49 67 101
176 127 266 31 112 31 296 0 408 -42 147 -113 265 -219 366 -106 101 -98 99
-117 43z m-366 -1353 c-6 -11 -13 -20 -16 -20 -2 0 0 9 6 20 6 11 13 20 16 20
2 0 0 -9 -6 -20z"/>
</g>
</svg>
